<svg width="238" height="66" viewBox="0 0 238 66" fill="none" xmlns="http://www.w3.org/2000/svg">
<g clip-path="url(#clip0_7545_9333)">
<path d="M48.7334 16.2673H29.2726L15.5809 31.4406V0H0V65.004H15.5809V44.1483L30.8727 65.004H49.5436L28.5887 37.421L48.7334 16.2673Z" fill="#2F4FCD"/>
<path d="M82.8876 18.443C79.0524 16.3366 74.5862 15.2671 69.6152 15.2671C64.6441 15.2671 60.1779 16.3203 56.3468 18.3981C52.4994 20.4841 49.4622 23.4722 47.3248 27.2727C45.1955 31.065 44.1125 35.4614 44.1125 40.3437C44.1125 45.2259 45.1914 49.9081 47.3207 53.778C49.4582 57.6642 52.4954 60.7094 56.3427 62.824C60.1738 64.9304 64.64 65.9999 69.6152 65.9999C74.5903 65.9999 79.142 64.9304 82.9731 62.8281C86.8245 60.7135 89.8455 57.6683 91.9544 53.778C94.0552 49.9081 95.1178 45.3892 95.1178 40.3477C95.1178 35.3063 94.0348 31.0813 91.9055 27.3176C89.7681 23.5457 86.735 20.5616 82.8876 18.4471V18.443ZM76.402 49.1652C74.7328 51.3205 72.5139 52.3656 69.6152 52.3656C66.7164 52.3656 64.4568 51.3287 62.7347 49.1897C60.9922 47.0302 60.1087 44.0543 60.1087 40.3396C60.1087 36.8534 61.0044 34.0204 62.7672 31.9181C64.522 29.8281 66.7612 28.8157 69.6192 28.8157C72.4773 28.8157 74.6799 29.8281 76.3776 31.91C78.0916 34.0163 78.9629 36.8534 78.9629 40.3437C78.9629 44.0094 78.1038 46.9771 76.4061 49.1652H76.402Z" fill="#2F4FCD"/>
<path d="M136.706 18.443C132.871 16.3366 128.405 15.2671 123.434 15.2671C118.463 15.2671 113.996 16.3203 110.165 18.3981C106.318 20.4841 103.281 23.4722 101.143 27.2727C99.014 31.065 97.931 35.4614 97.931 40.3437C97.931 45.2259 99.0099 49.9081 101.139 53.778C103.277 57.6642 106.314 60.7094 110.161 62.824C113.992 64.9304 118.459 65.9999 123.434 65.9999C128.409 65.9999 132.96 64.9304 136.792 62.8281C140.643 60.7135 143.664 57.6683 145.777 53.778C147.878 49.9081 148.94 45.3892 148.94 40.3477C148.94 35.3063 147.857 31.0813 145.728 27.3176C143.591 23.5457 140.558 20.5616 136.71 18.4471L136.706 18.443ZM130.221 49.1652C128.551 51.3205 126.332 52.3656 123.434 52.3656C120.535 52.3656 118.275 51.3287 116.553 49.1897C114.811 47.0302 113.927 44.0543 113.927 40.3396C113.927 36.8534 114.823 34.0204 116.586 31.9181C118.34 29.8281 120.58 28.8157 123.438 28.8157C126.296 28.8157 128.498 29.8281 130.196 31.91C131.91 34.0163 132.781 36.8534 132.781 40.3437C132.781 44.0094 131.922 46.9771 130.225 49.1652H130.221Z" fill="#2F4FCD"/>
<path d="M178.274 16.2673L170.628 40.6459L163.288 16.2673H146.73L164.647 65.004H176.825L194.828 16.2673H178.274Z" fill="#2F4FCD"/>
<path d="M235.085 40.9357C233.204 38.9028 230.928 37.4333 228.323 36.5597C225.815 35.7229 222.627 34.9554 218.849 34.29C215.502 33.694 213.035 33.0817 211.524 32.4694C209.88 31.804 209.692 30.8202 209.692 30.1344C209.692 29.3711 210.059 28.7751 210.84 28.2648C211.72 27.6933 212.945 27.4035 214.48 27.4035C216.239 27.4035 217.843 27.8607 219.244 28.7628C220.624 29.6527 221.564 31.0202 222.122 32.9388L222.297 33.543H237.08L236.913 32.5633C235.997 27.1136 233.509 22.8151 229.515 19.7903C225.55 16.7858 220.518 15.2632 214.566 15.2632C209.016 15.2632 204.326 16.496 200.613 18.9289C196.79 21.4354 194.852 25.3134 194.852 30.461C194.852 34.09 195.813 37.0128 197.715 39.1519C199.567 41.2419 201.802 42.7605 204.351 43.6585C206.806 44.528 209.937 45.3322 213.654 46.0547C216.947 46.7038 219.37 47.3569 220.852 47.9938C222.476 48.6918 222.663 49.6878 222.663 50.3736C222.663 51.3574 222.199 52.1086 221.198 52.7331C220.099 53.4189 218.645 53.7659 216.882 53.7659C214.899 53.7659 213.076 53.2393 211.455 52.1984C209.843 51.1656 208.736 49.6674 208.076 47.6264L207.889 47.0467H192.841L192.955 47.9897C193.472 52.2433 194.991 55.7662 197.474 58.4604C199.933 61.126 202.93 63.0732 206.386 64.2448C209.798 65.4041 213.381 65.9919 217.041 65.9919C221.218 65.9919 224.919 65.3143 228.05 63.9753C231.217 62.6201 233.693 60.6606 235.407 58.1583C237.125 55.6478 237.996 52.7209 237.996 49.4674C237.996 45.8915 237.015 43.0176 235.081 40.9276L235.085 40.9357Z" fill="#2F4FCD"/>
</g>
<defs>
<clipPath id="clip0_7545_9333">
<rect width="238" height="66" fill="white"/>
</clipPath>
</defs>
</svg>
