<svg width="224" height="224" viewBox="0 0 224 224" fill="none" xmlns="http://www.w3.org/2000/svg">
<path d="M202.209 133.791C214.244 83.9693 183.612 33.8252 133.791 21.7906C83.9694 9.75594 33.8252 40.388 21.7906 90.2093C9.75599 140.031 40.3881 190.175 90.2094 202.209C140.031 214.244 190.175 183.612 202.209 133.791Z" fill="#2F4FCD"/>
<path d="M116.141 152.859C116.138 154.376 115.684 155.859 114.837 157.118C113.991 158.377 112.79 159.357 111.386 159.934C109.982 160.51 108.439 160.657 106.952 160.356C105.465 160.055 104.1 159.32 103.031 158.243C101.962 157.166 101.236 155.796 100.946 154.307C100.656 152.817 100.814 151.275 101.401 149.876C101.988 148.476 102.976 147.282 104.242 146.445C105.507 145.608 106.993 145.165 108.51 145.172C110.539 145.187 112.48 146.003 113.91 147.443C115.339 148.883 116.141 150.83 116.141 152.859Z" fill="white"/>
<path d="M93.1575 143.008C95.1141 140.901 97.4776 139.214 100.105 138.048C102.732 136.881 105.569 136.26 108.444 136.222C111.318 136.183 114.171 136.729 116.828 137.824C119.486 138.92 121.894 140.544 123.906 142.597C127.824 146.553 133.943 140.489 130.025 136.533C127.209 133.695 123.853 131.448 120.155 129.926C116.458 128.404 112.493 127.637 108.494 127.67C104.496 127.703 100.544 128.536 96.872 130.119C93.1999 131.702 89.8817 134.003 87.1124 136.888C83.2876 140.899 89.3513 147.038 93.1948 143.008H93.1575Z" fill="white"/>
<path d="M67.1073 107.371C78.7685 97.2961 92.6872 90.9524 108.266 90.9151C123.819 90.6932 138.869 96.4195 150.34 106.924C154.37 110.655 160.508 104.666 156.46 100.86C143.383 88.7486 126.183 82.0765 108.36 82.2019C90.4296 82.2019 74.4958 89.665 61.0809 101.177C56.8829 104.815 62.9466 110.916 67.1633 107.297L67.1073 107.371Z" fill="white"/>
<path d="M77.3929 127.092C81.2807 122.753 86.0255 119.267 91.3279 116.853C96.6303 114.44 102.375 113.151 108.201 113.069C114.026 112.986 119.805 114.112 125.174 116.375C130.542 118.637 135.384 121.988 139.393 126.215C143.274 130.189 149.393 124.126 145.513 120.133C140.703 115.106 134.912 111.121 128.498 108.424C122.085 105.727 115.186 104.376 108.229 104.454C101.273 104.533 94.406 106.04 88.0553 108.881C81.7047 111.723 76.0053 115.838 71.3105 120.972C67.5789 125.04 73.6054 131.178 77.3929 127.092Z" fill="white"/>
<path d="M180.933 91.1163C183.197 78.321 174.658 66.1137 161.863 63.8507C149.068 61.5876 136.861 70.1257 134.598 82.921C132.335 95.7163 140.873 107.923 153.668 110.187C166.463 112.45 178.67 103.912 180.933 91.1163Z" fill="#F2994A"/>
<path d="M167.455 80.4394L164.117 77.1016L149.169 92.0493L152.507 95.3871L167.455 80.4394Z" fill="white"/>
<path d="M152.518 77.084L149.18 80.4219L164.127 95.3696L167.465 92.0318L152.518 77.084Z" fill="white"/>
</svg>
